DBRep_DrawableShape

CASCADE Topology V1, (c) Matra-Datavision
Locations 8
1
              1               0               0               0 
              0               1               0               0 
              0               0               1               0 
2  1 -1 0
1
3.26794896587934e-07 -0.999999999999947               0               0 
0.999999999999947 3.26794896587934e-07               0               0 
              0               0               1               0 
2  3 -1 0
1
-0.999999999999786 -6.53589793076238e-07               0               0 
6.53589793076238e-07 -0.999999999999786               0               0 
              0               0               1               0 
2  5 -1 0
1
-9.80384689208691e-07 0.999999999999519               0               0 
-0.999999999999519 -9.80384689208691e-07               0               0 
              0               0               1               0 
2  7 -1 0
Curve2ds 56
1 0 0 1 0 
1 0 0 1 0 
1 0.30000000000000004 0 0 -1 
1 0 0 0 1 
1 0 -0.10000000000000001 1 0 
1 0 0 1 0 
1 0 0 0 -1 
1 0 0 0 1 
1 0 0 1 0 
1 0 0.10000000000000001 1 0 
1 0.30000000000000004 0 0 -1 
1 0.10000000000000001 0 0 1 
1 0 -0.10000000000000001 1 0 
1 0 0.10000000000000001 1 0 
1 0 0 0 -1 
1 0.10000000000000001 0 0 1 
1 0 0 0 1 
1 0 0 1 0 
1 0.30000000000000004 0 0 1 
1 0 0 1 0 
1 0 0 0 1 
1 0 0.10000000000000001 1 0 
1 0.30000000000000004 0 0 1 
1 0 0.10000000000000001 1 0 
1 -0.15000000000000002 -0.050000000000000003 1 0 
1 0.14999999999999999 -0.050000000000000003 0 1 
1 0.14999999999999999 0.050000000000000003 -1 0 
1 -0.15000000000000002 0.050000000000000003 0 -1 
1 -0.0019999999999999948 -0.0075000000000000067 1 0 
1 0.0020000000000000087 0.0074999999999999928 -1 0 
1 -0.0019999999999999948 -0.0074999999999999928 1 0 
1 0.0020000000000000087 0.0075000000000000067 -1 0 
1 -0.15000000000000002 -0.050000000000000003 1 0 
1 0.14999999999999999 -0.050000000000000003 0 1 
1 0.14999999999999999 0.050000000000000003 -1 0 
1 -0.15000000000000002 0.050000000000000003 0 -1 
1 -0.0019999999999999948 -0.0075000000000000067 1 0 
1 0.0020000000000000087 0.0074999999999999928 -1 0 
1 -0.0019999999999999948 -0.0074999999999999928 1 0 
1 0.0020000000000000087 0.0075000000000000067 -1 0 
1 -0.15000000000000002 -0.050000000000000003 1 0 
1 0.14999999999999999 -0.050000000000000003 0 1 
1 0.14999999999999999 0.050000000000000003 -1 0 
1 -0.15000000000000002 0.050000000000000003 0 -1 
1 -0.0019999999999999948 -0.0075000000000000067 1 0 
1 0.0020000000000000087 0.0074999999999999928 -1 0 
1 -0.0019999999999999948 -0.0074999999999999928 1 0 
1 0.0020000000000000087 0.0075000000000000067 -1 0 
1 -0.15000000000000002 -0.050000000000000003 1 0 
1 0.14999999999999999 -0.050000000000000003 0 1 
1 0.14999999999999999 0.050000000000000003 -1 0 
1 -0.15000000000000002 0.050000000000000003 0 -1 
1 -0.0019999999999999948 -0.0075000000000000067 1 0 
1 0.0020000000000000087 0.0074999999999999928 -1 0 
1 -0.0019999999999999948 -0.0074999999999999928 1 0 
1 0.0020000000000000087 0.0075000000000000067 -1 0 
Curves 44
1 -0.050000000000000003 -0.050000000000000003 -0.30000000000000004 0 0 1 
1 -0.050000000000000003 -0.050000000000000003 0 -0 1 0 
1 -0.050000000000000003 0.050000000000000003 -0.30000000000000004 0 0 1 
1 -0.050000000000000003 -0.050000000000000003 -0.30000000000000004 -0 1 0 
1 0.050000000000000003 -0.050000000000000003 -0.30000000000000004 0 0 1 
1 0.050000000000000003 -0.050000000000000003 0 -0 1 0 
1 0.050000000000000003 0.050000000000000003 -0.30000000000000004 0 0 1 
1 0.050000000000000003 -0.050000000000000003 -0.30000000000000004 -0 1 0 
1 -0.050000000000000003 -0.050000000000000003 -0.30000000000000004 1 0 -0 
1 -0.050000000000000003 -0.050000000000000003 0 1 0 -0 
1 -0.050000000000000003 0.050000000000000003 -0.30000000000000004 1 0 -0 
1 -0.050000000000000003 0.050000000000000003 0 1 0 -0 
1 0.054000000000000006 -0.050000000000000003 0 1 0 0 
1 0.35400000000000004 -0.050000000000000003 0 0 1 0 
1 0.35400000000000004 0.050000000000000003 0 -1 0 0 
1 0.054000000000000006 0.050000000000000003 0 0 -1 0 
1 0.050000000000000003 0.035000000000000003 0 1 0 0 
1 0.054000000000000006 0.050000000000000003 0 -1 0 0 
1 0.050000000000000003 -0.050000000000000003 0 1 0 0 
1 0.054000000000000006 -0.035000000000000003 0 -1 0 0 
1 0.054000000000000006 -0.050000000000000003 0 1 0 0 
1 0.35400000000000004 -0.050000000000000003 0 0 1 0 
1 0.35400000000000004 0.050000000000000003 0 -1 0 0 
1 0.054000000000000006 0.050000000000000003 0 0 -1 0 
1 0.050000000000000003 0.035000000000000003 0 1 0 0 
1 0.054000000000000006 0.050000000000000003 0 -1 0 0 
1 0.050000000000000003 -0.050000000000000003 0 1 0 0 
1 0.054000000000000006 -0.035000000000000003 0 -1 0 0 
1 0.054000000000000006 -0.050000000000000003 0 1 0 0 
1 0.35400000000000004 -0.050000000000000003 0 0 1 0 
1 0.35400000000000004 0.050000000000000003 0 -1 0 0 
1 0.054000000000000006 0.050000000000000003 0 0 -1 0 
1 0.050000000000000003 0.035000000000000003 0 1 0 0 
1 0.054000000000000006 0.050000000000000003 0 -1 0 0 
1 0.050000000000000003 -0.050000000000000003 0 1 0 0 
1 0.054000000000000006 -0.035000000000000003 0 -1 0 0 
1 0.054000000000000006 -0.050000000000000003 0 1 0 0 
1 0.35400000000000004 -0.050000000000000003 0 0 1 0 
1 0.35400000000000004 0.050000000000000003 0 -1 0 0 
1 0.054000000000000006 0.050000000000000003 0 0 -1 0 
1 0.050000000000000003 0.035000000000000003 0 1 0 0 
1 0.054000000000000006 0.050000000000000003 0 -1 0 0 
1 0.050000000000000003 -0.050000000000000003 0 1 0 0 
1 0.054000000000000006 -0.035000000000000003 0 -1 0 0 
Polygon3D 0
PolygonOnTriangulations 0
Surfaces 18
1 -0.050000000000000003 -0.050000000000000003 -0.30000000000000004 1 0 -0 0 0 1 0 -1 0 
1 -0.050000000000000003 -0.050000000000000003 -0.30000000000000004 -0 1 0 0 0 1 1 0 -0 
1 -0.050000000000000003 -0.050000000000000003 0 0 0 1 1 0 -0 -0 1 0 
1 -0.050000000000000003 0.050000000000000003 -0.30000000000000004 -0 1 0 0 0 1 1 0 -0 
1 -0.050000000000000003 -0.050000000000000003 -0.30000000000000004 0 0 1 1 0 -0 -0 1 0 
1 0.050000000000000003 -0.050000000000000003 -0.30000000000000004 1 0 -0 0 0 1 0 -1 0 
1 0.20400000000000004 2.1684043449710085e-18 0 0 0 1 1 0 -0 -0 1 0 
1 0.051999999999999998 0.04250000000000001 0 0 0 1 1 0 -0 -0 1 0 
1 0.051999999999999998 -0.04250000000000001 0 0 0 1 1 0 -0 -0 1 0 
1 0.20400000000000004 2.1684043449710085e-18 0 0 0 1 1 0 -0 -0 1 0 
1 0.051999999999999998 0.04250000000000001 0 0 0 1 1 0 -0 -0 1 0 
1 0.051999999999999998 -0.04250000000000001 0 0 0 1 1 0 -0 -0 1 0 
1 0.20400000000000004 2.1684043449710085e-18 0 0 0 1 1 0 -0 -0 1 0 
1 0.051999999999999998 0.04250000000000001 0 0 0 1 1 0 -0 -0 1 0 
1 0.051999999999999998 -0.04250000000000001 0 0 0 1 1 0 -0 -0 1 0 
1 0.20400000000000004 2.1684043449710085e-18 0 0 0 1 1 0 -0 -0 1 0 
1 0.051999999999999998 0.04250000000000001 0 0 0 1 1 0 -0 -0 1 0 
1 0.051999999999999998 -0.04250000000000001 0 0 0 1 1 0 -0 -0 1 0 
Triangulations 0

TShapes 151
Ve
1e-07
-0.05 -0.05 0
0 0

0101101
*
Ve
1e-07
-0.05 -0.05 -0.3
0 0

0101101
*
Ed
 1e-07 1 1 0
1  1 0 0 0.3
2  1 1 0 0 0.3
2  2 2 0 0 0.3
0

0101000
-151 0 +150 0 *
Ve
1e-07
-0.05 0.05 0
0 0

0101101
*
Ed
 1e-07 1 1 0
1  2 0 0 0.1
2  3 1 0 0 0.1
2  4 3 0 0 0.1
0

0101000
-148 0 +151 0 *
Ve
1e-07
-0.05 0.05 -0.3
0 0

0101101
*
Ed
 1e-07 1 1 0
1  3 0 0 0.3
2  5 1 0 0 0.3
2  6 4 0 0 0.3
0

0101000
-148 0 +146 0 *
Ed
 1e-07 1 1 0
1  4 0 0 0.1
2  7 1 0 0 0.1
2  8 5 0 0 0.1
0

0101000
-146 0 +150 0 *
Wi

0101100
-149 0 -147 0 +145 0 +144 0 *
Fa
0  1e-07 1 0

0111000
+143 0 *
Ve
1e-07
0.05 -0.05 0
0 0

0101101
*
Ve
1e-07
0.05 -0.05 -0.3
0 0

0101101
*
Ed
 1e-07 1 1 0
1  5 0 0 0.3
2  9 6 0 0 0.3
2  10 2 0 0 0.3
0

0101000
-141 0 +140 0 *
Ve
1e-07
0.05 0.05 0
0 0

0101101
*
Ed
 1e-07 1 1 0
1  6 0 0 0.1
2  11 6 0 0 0.1
2  12 3 0 0 0.1
0

0101000
-138 0 +141 0 *
Ve
1e-07
0.05 0.05 -0.3
0 0

0101101
*
Ed
 1e-07 1 1 0
1  7 0 0 0.3
2  13 6 0 0 0.3
2  14 4 0 0 0.3
0

0101000
-138 0 +136 0 *
Ed
 1e-07 1 1 0
1  8 0 0 0.1
2  15 6 0 0 0.1
2  16 5 0 0 0.1
0

0101000
-136 0 +140 0 *
Wi

0101100
-139 0 -137 0 +135 0 +134 0 *
Fa
0  1e-07 6 0

0111000
+133 0 *
Ed
 1e-07 1 1 0
1  9 0 0 0.1
2  17 2 0 0 0.1
2  18 5 0 0 0.1
0

0101000
-140 0 +150 0 *
Ed
 1e-07 1 1 0
1  10 0 0 0.1
2  19 2 0 0 0.1
2  20 3 0 0 0.1
0

0101000
-141 0 +151 0 *
Wi

0101100
-131 0 -139 0 +130 0 +149 0 *
Fa
0  1e-07 2 0

0111000
+129 0 *
Ed
 1e-07 1 1 0
1  11 0 0 0.1
2  21 4 0 0 0.1
2  22 5 0 0 0.1
0

0101000
-136 0 +146 0 *
Ed
 1e-07 1 1 0
1  12 0 0 0.1
2  23 4 0 0 0.1
2  24 3 0 0 0.1
0

0101000
-138 0 +148 0 *
Wi

0101100
-127 0 -135 0 +126 0 +145 0 *
Fa
0  1e-07 4 0

0111000
+125 0 *
Wi

0101100
-144 0 -127 0 +134 0 +131 0 *
Fa
0  1e-07 5 0

0111000
+123 0 *
Wi

0101100
-147 0 -126 0 +137 0 +130 0 *
Fa
0  1e-07 3 0

0111000
+121 0 *
Sh

0101100
-142 0 +132 0 -128 0 +124 0 -122 0 +120 0 *
So

0100000
+119 0 *
Ve
1e-07
0.054 -0.05 0
0 0

0101101
*
Ve
1e-07
0.354 -0.05 0
0 0

0101101
*
Ed
 1e-07 1 1 0
1  13 0 0 0.3
2  25 7 0 0 0.3
0

0101000
+117 2 -116 0 *
Ve
1e-07
0.354 0.05 0
0 0

0101101
*
Ed
 1e-07 1 1 0
1  14 0 0 0.1
2  26 7 0 0 0.1
0

0101000
+116 0 -114 0 *
Ve
1e-07
0.054 0.05 0
0 0

0101101
*
Ed
 1e-07 1 1 0
1  15 0 0 0.3
2  27 7 0 0 0.3
0

0101000
+114 0 -112 2 *
Ve
1e-07
0.054 0.035 0
0 0

0101101
*
Ed
 1e-07 1 1 0
1  16 0 0 0.015
2  28 7 0 0 0.015
0

0101000
+112 2 -110 0 *
Ve
1e-07
0.054 -0.035 0
0 0

0101101
*
Ed
 1e-07 1 1 0
1  16 0 0.015 0.085
2  28 7 0 0.015 0.085
0

0101000
+110 0 -108 0 *
Ed
 1e-07 1 1 0
1  16 0 0.085 0.1
2  28 7 0 0.085 0.1
0

0101000
+108 0 -117 2 *
Wi

0101100
+115 1 +113 1 +111 1 +109 1 +107 1 +106 1 *
Fa
0  1e-07 7 1

0101000
+105 0 *
Ve
1e-07
0.05 0.035 0
0 0

0101101
*
Ed
 1e-07 1 1 0
1  17 0 0 0.004
2  29 8 0 0 0.004
0

0101000
+103 0 -110 0 *
Ve
1.1593124898669e-07
0.0500000054465807 0.0499999945534175 0
0 0

0101101
*
Ed
 1e-07 1 1 0
1  18 0 0 0.004
2  30 8 0 0 0.004
0

0101000
+112 2 -101 2 *
Ed
 1e-07 1 1 0
1  6 0 0.085 0.1
2  11 6 0 0.085 0.1
2  12 3 0 0.085 0.1
0

0101000
+103 1 -101 0 *
Wi

0101100
+102 1 -109 1 +100 1 -99 0 *
Fa
0  1e-07 8 1

0101000
+98 0 *
Ve
1.47793773633199e-07
0.0499999836602472 -0.0500000163397368 0
0 0

0101101
*
Ed
 1e-07 1 1 0
1  19 0 0 0.004
2  31 9 0 0 0.004
0

0101000
+96 2 -117 2 *
Ve
1e-07
0.05 -0.035 0
0 0

0101101
*
Ed
 1e-07 1 1 0
1  20 0 0 0.004
2  32 9 0 0 0.004
0

0101000
+108 0 -94 0 *
Ed
 1e-07 1 1 0
1  6 0 0 0.015
2  11 6 0 0 0.015
2  12 3 0 0 0.015
0

0101000
+96 0 -94 1 *
Wi

0101100
+95 1 -106 1 +93 1 -92 0 *
Fa
0  1e-07 9 1

0101000
+91 0 *
Ve
1.00000000006939e-07
0.0500000176469217 0.0539999836602523 0
0 0

0101101
*
Ve
1e-07
0.354 -0.05 0
0 0

0101101
*
Ed
 1e-07 1 1 0
1  21 0 0 0.3
2  33 10 0 0 0.3
0

0101000
+89 4 -88 0 *
Ve
1e-07
0.354 0.05 0
0 0

0101101
*
Ed
 1e-07 1 1 0
1  22 0 0 0.1
2  34 10 0 0 0.1
0

0101000
+88 0 -86 0 *
Ve
1e-07
-0.0499999823530729 0.0540000163397419 0
0 0

0101101
*
Ed
 1e-07 1 1 0
1  23 0 0 0.3
2  35 10 0 0 0.3
0

0101000
+86 0 -84 4 *
Ve
1e-07
0.054 0.035 0
0 0

0101101
*
Ed
 1e-07 1 1 0
1  24 0 0 0.015
2  36 10 0 0 0.015
0

0101000
+84 4 -82 0 *
Ve
1.00000000006939e-07
0.054 -0.035 0
0 0

0101101
*
Ed
 1e-07 1 1 0
1  24 0 0.015 0.085
2  36 10 0 0.015 0.085
0

0101000
+82 0 -80 0 *
Ed
 1.00000000006939e-07 1 1 0
1  24 0 0.085 0.1
2  36 10 0 0.085 0.1
0

0101000
+80 0 -89 4 *
Wi

0101100
+87 3 +85 3 +83 3 +81 3 +79 3 +78 3 *
Fa
0  1e-07 10 3

0101000
+77 0 *
Ve
1.15931253427582e-07
0.05 0.035 0
0 0

0101101
*
Ed
 1e-07 1 1 0
1  25 0 0 0.004
2  37 11 0 0 0.004
0

0101000
+75 0 -82 0 *
Ve
1.31862493511676e-07
-0.0499999836602507 0.0500000163397404 0
0 0

0101101
*
Ed
 1e-07 1 1 0
1  26 0 0 0.004
2  38 11 0 0 0.004
0

0101000
+84 4 -73 4 *
Ed
 1.15931253427582e-07 1 1 0
1  12 0 0 0.0150000163397467
2  23 4 0 0 0.0150000163397467
2  24 3 0 0 0.0150000163397467
0

0101000
+73 0 -75 3 *
Wi

0101100
+74 3 -81 3 +72 3 +71 0 *
Fa
0  1e-07 11 3

0101000
+70 0 *
Ed
 1e-07 1 1 0
1  27 0 0 0.004
2  39 12 0 0 0.004
0

0101000
+101 4 -89 4 *
Ve
1.15931248979751e-07
0.05 -0.035 0
0 0

0101101
*
Ed
 1e-07 1 1 0
1  28 0 0 0.004
2  40 12 0 0 0.004
0

0101000
+80 0 -67 0 *
Ed
 1.15931248979751e-07 1 1 0
1  12 0 0.085000016339743 0.1
2  23 4 0 0.085000016339743 0.1
2  24 3 0 0.085000016339743 0.1
0

0101000
+67 3 -101 0 *
Wi

0101100
+68 3 -78 3 +66 3 +65 0 *
Fa
0  1e-07 12 3

0101000
+64 0 *
Ve
1.00000000013878e-07
-0.0539999673204988 0.0500000352938381 0
0 0

0101101
*
Ve
1e-07
0.354 -0.05 0
0 0

0101101
*
Ed
 1e-07 1 1 0
1  29 0 0 0.3
2  41 13 0 0 0.3
0

0101000
+62 6 -61 0 *
Ve
1e-07
0.354 0.05 0
0 0

0101101
*
Ed
 1e-07 1 1 0
1  30 0 0 0.1
2  42 13 0 0 0.1
0

0101000
+61 0 -59 0 *
Ve
1.00000000016752e-07
-0.0540000326794781 -0.0499999647061405 0
0 0

0101101
*
Ed
 1e-07 1 1 0
1  31 0 0 0.3
2  43 13 0 0 0.3
0

0101000
+59 0 -57 6 *
Ve
1.00000000006939e-07
0.054 0.035 0
0 0

0101101
*
Ed
 1.00000000006939e-07 1 1 0
1  32 0 0 0.015
2  44 13 0 0 0.015
0

0101000
+57 6 -55 0 *
Ve
1.00000000006939e-07
0.054 -0.035 0
0 0

0101101
*
Ed
 1e-07 1 1 0
1  32 0 0.015 0.085
2  44 13 0 0.015 0.085
0

0101000
+55 0 -53 0 *
Ed
 1.00000000006939e-07 1 1 0
1  32 0 0.085 0.1
2  44 13 0 0.085 0.1
0

0101000
+53 0 -62 6 *
Wi

0101100
+60 5 +58 5 +56 5 +54 5 +52 5 +51 5 *
Fa
0  1e-07 13 5

0101000
+50 0 *
Ve
1.31862511316878e-07
0.05 0.035 0
0 0

0101101
*
Ed
 1e-07 1 1 0
1  33 0 0 0.004
2  45 14 0 0 0.004
0

0101000
+48 0 -55 0 *
Ve
1.47793733591716e-07
-0.0500000272328965 -0.0499999727670804 0
0 0

0101101
*
Ed
 1e-07 1 1 0
1  34 0 0 0.004
2  46 14 0 0 0.004
0

0101000
+57 6 -46 6 *
Ed
 1.31862511316878e-07 1 1 0
1  2 0 0 0.0150000326794971
2  3 1 0 0 0.0150000326794971
2  4 3 0 0 0.0150000326794971
0

0101000
+46 0 -48 5 *
Wi

0101100
+47 5 -54 5 +45 5 +44 0 *
Fa
0  1e-07 14 5

0101000
+43 0 *
Ed
 1e-07 1 1 0
1  35 0 0 0.004
2  47 15 0 0 0.004
0

0101000
+73 6 -62 6 *
Ve
1.31862493511676e-07
0.05 -0.035 0
0 0

0101101
*
Ed
 1e-07 1 1 0
1  36 0 0 0.004
2  48 15 0 0 0.004
0

0101000
+53 0 -40 0 *
Ed
 1.31862493511676e-07 1 1 0
1  2 0 0.0850000326794822 0.1
2  3 1 0 0.0850000326794822 0.1
2  4 3 0 0.0850000326794822 0.1
0

0101000
+40 5 -73 0 *
Wi

0101100
+41 5 -51 5 +39 5 +38 0 *
Fa
0  1e-07 15 5

0101000
+37 0 *
Ve
1.00000000006939e-07
-0.0500000529407492 -0.0539999509807396 0
0 0

0101101
*
Ve
1e-07
0.354 -0.05 0
0 0

0101101
*
Ed
 1e-07 1 1 0
1  37 0 0 0.3
2  49 16 0 0 0.3
0

0101000
+35 8 -34 0 *
Ve
1e-07
0.354 0.05 0
0 0

0101101
*
Ed
 1e-07 1 1 0
1  38 0 0 0.1
2  50 16 0 0 0.1
0

0101000
+34 0 -32 0 *
Ve
1.00000000013878e-07
0.0499999470592028 -0.0540000490192085 0
0 0

0101101
*
Ed
 1e-07 1 1 0
1  39 0 0 0.3
2  51 16 0 0 0.3
0

0101000
+32 0 -30 8 *
Ve
1.00000000006939e-07
0.054 0.035 0
0 0

0101101
*
Ed
 1.00000000006939e-07 1 1 0
1  40 0 0 0.015
2  52 16 0 0 0.015
0

0101000
+30 8 -28 0 *
Ve
1.00000000021943e-07
0.054 -0.035 0
0 0

0101101
*
Ed
 1e-07 1 1 0
1  40 0 0.015 0.085
2  52 16 0 0.015 0.085
0

0101000
+28 0 -26 0 *
Ed
 1.00000000006939e-07 1 1 0
1  40 0 0.085 0.1
2  52 16 0 0.085 0.1
0

0101000
+26 0 -35 8 *
Wi

0101100
+33 7 +31 7 +29 7 +27 7 +25 7 +24 7 *
Fa
0  1e-07 16 7

0101000
+23 0 *
Ve
1.4779377362626e-07
0.05 0.035 0
0 0

0101101
*
Ed
 1e-07 1 1 0
1  41 0 0 0.004
2  53 17 0 0 0.004
0

0101000
+21 0 -28 0 *
Ed
 1e-07 1 1 0
1  42 0 0 0.004
2  54 17 0 0 0.004
0

0101000
+30 8 -96 8 *
Ed
 1.4779377362626e-07 1 1 0
1  10 0 0.0849999509807487 0.1
2  19 2 0 0.0849999509807487 0.1
2  20 3 0 0.0849999509807487 0.1
0

0101000
+21 7 -96 0 *
Wi

0101100
+20 7 -27 7 +19 7 -18 0 *
Fa
0  1e-07 17 7

0101000
+17 0 *
Ed
 1e-07 1 1 0
1  43 0 0 0.004
2  55 18 0 0 0.004
0

0101000
+46 8 -35 8 *
Ve
1.47793733581903e-07
0.05 -0.035 0
0 0

0101101
*
Ed
 1e-07 1 1 0
1  44 0 0 0.004
2  56 18 0 0 0.004
0

0101000
+26 0 -14 0 *
Ed
 1.47793733581903e-07 1 1 0
1  10 0 0 0.0149999509807824
2  19 2 0 0 0.0149999509807824
2  20 3 0 0 0.0149999509807824
0

0101000
+46 0 -14 7 *
Wi

0101100
+15 7 -24 7 +13 7 -12 0 *
Fa
0  1e-07 18 7

0101000
+11 0 *
Ed
 1e-07 1 1 0
1  1 0 0 0.3
2  1 1 0 0 0.3
2  2 2 0 0 0.3
0

0101000
+150 0 -46 0 *
Ed
 1e-07 1 1 0
1  2 0 0.0150000326794971 0.0850000326794822
2  3 1 0 0.0150000326794971 0.0850000326794822
2  4 3 0 0.0150000326794971 0.0850000326794822
0

0101000
+48 5 -40 5 *
Ed
 1e-07 1 1 0
1  3 0 0 0.3
2  5 1 0 0 0.3
2  6 4 0 0 0.3
0

0101000
+146 0 -73 0 *
Ed
 1e-07 1 1 0
1  5 0 0 0.3
2  9 6 0 0 0.3
2  10 2 0 0 0.3
0

0101000
+140 0 -96 0 *
Ed
 1e-07 1 1 0
1  6 0 0.015 0.085
2  11 6 0 0.015 0.085
2  12 3 0 0.015 0.085
0

0101000
+94 1 -103 1 *
Ed
 1e-07 1 1 0
1  7 0 0 0.3
2  13 6 0 0 0.3
2  14 4 0 0 0.3
0

0101000
+136 0 -101 0 *
Ed
 1e-07 1 1 0
1  10 0 0.0149999509807824 0.0849999509807487
2  19 2 0 0.0149999509807824 0.0849999509807487
2  20 3 0 0.0149999509807824 0.0849999509807487
0

0101000
+14 7 -21 7 *
Ed
 1e-07 1 1 0
1  12 0 0.0150000163397467 0.085000016339743
2  23 4 0 0.0150000163397467 0.085000016339743
2  24 3 0 0.0150000163397467 0.085000016339743
0

0101000
+75 3 -67 3 *
Co

1100000
+118 0 +104 0 +97 0 +90 0 +76 0 +69 0 +63 0 +49 0 +42 0 +36 0 
+22 0 +16 0 +10 0 +9 0 +8 0 -7 0 -6 0 -5 0 +4 0 -3 0 
+2 0 *

+1 0 